<?xml version="1.0" encoding="iso-8859-1"?>
<!-- Generator: Adobe Illustrator 19.1.0, SVG Export Plug-In . SVG Version: 6.00 Build 0)  -->
<svg xmlns="http://www.w3.org/2000/svg" xmlns:xlink="http://www.w3.org/1999/xlink" version="1.1" id="Capa_1" x="0px" y="0px" viewBox="0 0 75 75" style="enable-background:new 0 0 75 75;" xml:space="preserve" width="56px" height="56px">
<g>
	<g>
		<path d="M57.5,21h-38c-1.104,0-2,0.896-2,2s0.896,2,2,2h38c1.104,0,2-0.896,2-2S58.604,21,57.5,21z" fill="#FFFFFF"/>
		<path d="M57.5,36h-38c-1.104,0-2,0.896-2,2s0.896,2,2,2h38c1.104,0,2-0.896,2-2S58.604,36,57.5,36z" fill="#FFFFFF"/>
		<path d="M57.5,51h-38c-1.104,0-2,0.896-2,2s0.896,2,2,2h38c1.104,0,2-0.896,2-2S58.604,51,57.5,51z" fill="#FFFFFF"/>
		<path d="M75,14c0-5.523-4.478-10-10-10H10C4.477,4,0,8.477,0,14v47c0,5.522,4.477,10,10,10h55c5.522,0,10-4.478,10-10V14z M71,61    c0,3.313-2.687,6-6,6H10c-3.313,0-6-2.687-6-6V14c0-3.313,2.687-6,6-6h55c3.313,0,6,2.687,6,6V61z" fill="#f1ad1d"/>
	</g>
</g>

</svg>
